<svg id="visual" viewBox="0 0 540 960" width="540" height="960" xmlns="http://www.w3.org/2000/svg" xmlns:xlink="http://www.w3.org/1999/xlink" version="1.1"><rect x="0" y="0" width="540" height="960" fill="#07090a"></rect><path d="M0 901L22.5 894.7C45 888.3 90 875.7 135 872.5C180 869.3 225 875.7 270 878.5C315 881.3 360 880.7 405 874C450 867.3 495 854.7 517.5 848.3L540 842L540 961L517.5 961C495 961 450 961 405 961C360 961 315 961 270 961C225 961 180 961 135 961C90 961 45 961 22.5 961L0 961Z" fill="#2563eb"></path><path d="M0 876L22.5 875C45 874 90 872 135 871.3C180 870.7 225 871.3 270 878.3C315 885.3 360 898.7 405 899.3C450 900 495 888 517.5 882L540 876L540 961L517.5 961C495 961 450 961 405 961C360 961 315 961 270 961C225 961 180 961 135 961C90 961 45 961 22.5 961L0 961Z" fill="#ffffff"></path></svg>